<mxfile host="app.diagrams.net" modified="2022-10-24T15:02:34.426Z" agent="5.0 (Macintosh; Intel Mac OS X 10_15_7) AppleWebKit/605.1.15 (KHTML, like Gecko) Version/15.2 Safari/605.1.15" etag="u3Zsq1tLs0V5OiT59oDd" version="20.5.1" type="github" pages="3">
  <diagram name="orders_edo_signing" id="74e2e168-ea6b-b213-b513-2b3c1d86103e">
    <mxGraphModel dx="1296" dy="1577" grid="1" gridSize="10" guides="1" tooltips="1" connect="1" arrows="1" fold="1" page="1" pageScale="1" pageWidth="1169" pageHeight="827" background="none" math="0" shadow="0">
      <root>
        <mxCell id="0" />
        <mxCell id="1" parent="0" />
        <mxCell id="77e6c97f196da883-1" value="EDO signing" style="swimlane;html=1;childLayout=stackLayout;startSize=20;rounded=0;shadow=0;labelBackgroundColor=none;strokeWidth=1;fontFamily=Verdana;fontSize=8;align=center;" parent="1" vertex="1">
          <mxGeometry x="240" y="-80" width="960" height="750" as="geometry">
            <mxRectangle x="70" y="40" width="90" height="20" as="alternateBounds" />
          </mxGeometry>
        </mxCell>
        <mxCell id="77e6c97f196da883-2" value="ЭДО Перевозчика" style="swimlane;html=1;startSize=20;" parent="77e6c97f196da883-1" vertex="1">
          <mxGeometry y="20" width="160" height="730" as="geometry" />
        </mxCell>
        <mxCell id="vTkwh2unY7aWWMfsaFMg-10" value="&lt;span style=&quot;font-size: 12px;&quot;&gt;Подписание поручения - заявки&lt;/span&gt;" style="rounded=1;whiteSpace=wrap;html=1;shadow=0;labelBackgroundColor=none;strokeWidth=1;fontFamily=Verdana;fontSize=8;align=center;" vertex="1" parent="77e6c97f196da883-2">
          <mxGeometry x="30" y="320" width="100" height="60" as="geometry" />
        </mxCell>
        <mxCell id="vTkwh2unY7aWWMfsaFMg-17" value="&lt;span style=&quot;font-size: 12px;&quot;&gt;Отзыв заявки&lt;/span&gt;" style="rounded=1;whiteSpace=wrap;html=1;shadow=0;labelBackgroundColor=none;strokeWidth=1;fontFamily=Verdana;fontSize=8;align=center;" vertex="1" parent="77e6c97f196da883-2">
          <mxGeometry x="30" y="540" width="100" height="60" as="geometry" />
        </mxCell>
        <mxCell id="77e6c97f196da883-39" style="edgeStyle=orthogonalEdgeStyle;rounded=1;html=1;labelBackgroundColor=none;startArrow=none;startFill=0;startSize=5;endArrow=classicThin;endFill=1;endSize=5;jettySize=auto;orthogonalLoop=1;strokeWidth=1;fontFamily=Verdana;fontSize=8;exitX=1;exitY=0.5;exitDx=0;exitDy=0;entryX=0;entryY=0.5;entryDx=0;entryDy=0;" parent="77e6c97f196da883-1" source="vTkwh2unY7aWWMfsaFMg-10" target="77e6c97f196da883-21" edge="1">
          <mxGeometry relative="1" as="geometry" />
        </mxCell>
        <mxCell id="77e6c97f196da883-3" value="ЛК Перевозчика (Обоз)" style="swimlane;html=1;startSize=20;" parent="77e6c97f196da883-1" vertex="1">
          <mxGeometry x="160" y="20" width="160" height="730" as="geometry" />
        </mxCell>
        <mxCell id="77e6c97f196da883-11" value="&lt;font style=&quot;font-size: 12px;&quot;&gt;Назначение ресурсов&lt;/font&gt;" style="rounded=1;whiteSpace=wrap;html=1;shadow=0;labelBackgroundColor=none;strokeWidth=1;fontFamily=Verdana;fontSize=8;align=center;" parent="77e6c97f196da883-3" vertex="1">
          <mxGeometry x="28" y="37" width="260" height="60" as="geometry" />
        </mxCell>
        <mxCell id="77e6c97f196da883-4" value="ЛК Логиста (Обоз)" style="swimlane;html=1;startSize=20;" parent="77e6c97f196da883-1" vertex="1">
          <mxGeometry x="320" y="20" width="160" height="730" as="geometry" />
        </mxCell>
        <mxCell id="vTkwh2unY7aWWMfsaFMg-4" value="&lt;span style=&quot;font-size: 12px;&quot;&gt;Нажимает кнопку &quot;подписать&quot;&lt;/span&gt;" style="rounded=1;whiteSpace=wrap;html=1;shadow=0;labelBackgroundColor=none;strokeWidth=1;fontFamily=Verdana;fontSize=8;align=center;" vertex="1" parent="77e6c97f196da883-4">
          <mxGeometry x="30" y="138" width="100" height="60" as="geometry" />
        </mxCell>
        <mxCell id="vTkwh2unY7aWWMfsaFMg-14" value="&lt;font style=&quot;font-size: 12px;&quot;&gt;Просмотр полностью подписанного документа (возможность загрузить)&lt;/font&gt;" style="rounded=1;whiteSpace=wrap;html=1;shadow=0;labelBackgroundColor=none;strokeWidth=1;fontFamily=Verdana;fontSize=8;align=center;" vertex="1" parent="77e6c97f196da883-4">
          <mxGeometry x="-130" y="380" width="260" height="60" as="geometry" />
        </mxCell>
        <mxCell id="77e6c97f196da883-20" value="&lt;font style=&quot;font-size: 12px;&quot;&gt;Отозвать?&lt;/font&gt;" style="rhombus;whiteSpace=wrap;html=1;rounded=0;shadow=0;labelBackgroundColor=none;strokeWidth=1;fontFamily=Verdana;fontSize=8;align=center;" parent="77e6c97f196da883-4" vertex="1">
          <mxGeometry x="30" y="485" width="80" height="60" as="geometry" />
        </mxCell>
        <mxCell id="77e6c97f196da883-36" style="edgeStyle=orthogonalEdgeStyle;rounded=1;html=1;labelBackgroundColor=none;startArrow=none;startFill=0;startSize=5;endArrow=classicThin;endFill=1;endSize=5;jettySize=auto;orthogonalLoop=1;strokeWidth=1;fontFamily=Verdana;fontSize=8" parent="77e6c97f196da883-4" source="vTkwh2unY7aWWMfsaFMg-14" target="77e6c97f196da883-20" edge="1">
          <mxGeometry relative="1" as="geometry">
            <mxPoint x="239.99999999999977" y="620" as="sourcePoint" />
          </mxGeometry>
        </mxCell>
        <mxCell id="77e6c97f196da883-5" value="Обоз" style="swimlane;html=1;startSize=20;" parent="77e6c97f196da883-1" vertex="1">
          <mxGeometry x="480" y="20" width="160" height="730" as="geometry" />
        </mxCell>
        <mxCell id="77e6c97f196da883-9" value="&lt;font style=&quot;font-size: 12px;&quot;&gt;Генерация поручения - заявки на перевозку&lt;/font&gt;" style="rounded=1;whiteSpace=wrap;html=1;shadow=0;labelBackgroundColor=none;strokeWidth=1;fontFamily=Verdana;fontSize=8;align=center;" parent="77e6c97f196da883-5" vertex="1">
          <mxGeometry x="30" y="37" width="100" height="60" as="geometry" />
        </mxCell>
        <mxCell id="vTkwh2unY7aWWMfsaFMg-7" value="&lt;span style=&quot;font-size: 12px;&quot;&gt;Подписание поручения - заявки&lt;/span&gt;" style="rounded=1;whiteSpace=wrap;html=1;shadow=0;labelBackgroundColor=none;strokeWidth=1;fontFamily=Verdana;fontSize=8;align=center;" vertex="1" parent="77e6c97f196da883-5">
          <mxGeometry x="30" y="138" width="100" height="60" as="geometry" />
        </mxCell>
        <mxCell id="vTkwh2unY7aWWMfsaFMg-8" value="&lt;span style=&quot;font-size: 12px;&quot;&gt;Загрузка поручения - заявки в ЭДО (СБИС)&lt;/span&gt;" style="rounded=1;whiteSpace=wrap;html=1;shadow=0;labelBackgroundColor=none;strokeWidth=1;fontFamily=Verdana;fontSize=8;align=center;" vertex="1" parent="77e6c97f196da883-5">
          <mxGeometry x="30" y="221" width="100" height="60" as="geometry" />
        </mxCell>
        <mxCell id="vTkwh2unY7aWWMfsaFMg-9" style="edgeStyle=orthogonalEdgeStyle;rounded=1;html=1;labelBackgroundColor=none;startArrow=none;startFill=0;startSize=5;endArrow=classicThin;endFill=1;endSize=5;jettySize=auto;orthogonalLoop=1;strokeWidth=1;fontFamily=Verdana;fontSize=8;entryX=0.5;entryY=0;entryDx=0;entryDy=0;exitX=0.5;exitY=1;exitDx=0;exitDy=0;" edge="1" parent="77e6c97f196da883-5" source="vTkwh2unY7aWWMfsaFMg-7" target="vTkwh2unY7aWWMfsaFMg-8">
          <mxGeometry relative="1" as="geometry">
            <mxPoint x="80" y="210" as="sourcePoint" />
            <mxPoint x="40" y="178" as="targetPoint" />
          </mxGeometry>
        </mxCell>
        <mxCell id="77e6c97f196da883-24" value="&lt;font style=&quot;font-size: 12px;&quot;&gt;Загрузка подписанного с двух сторон документа&lt;/font&gt;" style="rounded=1;whiteSpace=wrap;html=1;shadow=0;labelBackgroundColor=none;strokeWidth=1;fontFamily=Verdana;fontSize=8;align=center;" parent="77e6c97f196da883-5" vertex="1">
          <mxGeometry x="30" y="380" width="100" height="60" as="geometry" />
        </mxCell>
        <mxCell id="vTkwh2unY7aWWMfsaFMg-19" value="&lt;span style=&quot;font-size: 12px;&quot;&gt;Удаление отозванной заявки&lt;/span&gt;" style="rounded=1;whiteSpace=wrap;html=1;shadow=0;labelBackgroundColor=none;strokeWidth=1;fontFamily=Verdana;fontSize=8;align=center;" vertex="1" parent="77e6c97f196da883-5">
          <mxGeometry x="30" y="648" width="100" height="60" as="geometry" />
        </mxCell>
        <mxCell id="77e6c97f196da883-6" value="Документоборот (1С УНФ)" style="swimlane;html=1;startSize=20;" parent="77e6c97f196da883-1" vertex="1">
          <mxGeometry x="640" y="20" width="160" height="730" as="geometry" />
        </mxCell>
        <mxCell id="77e6c97f196da883-23" value="&lt;font style=&quot;font-size: 12px;&quot;&gt;Просмотр документа (возможность загрузить)&amp;nbsp;&lt;/font&gt;" style="rounded=1;whiteSpace=wrap;html=1;shadow=0;labelBackgroundColor=none;strokeWidth=1;fontFamily=Verdana;fontSize=8;align=center;" parent="77e6c97f196da883-6" vertex="1">
          <mxGeometry x="30" y="430" width="100" height="60" as="geometry" />
        </mxCell>
        <mxCell id="vTkwh2unY7aWWMfsaFMg-21" value="&lt;span style=&quot;font-size: 12px;&quot;&gt;Удаление отозванной заявки&lt;/span&gt;" style="rounded=1;whiteSpace=wrap;html=1;shadow=0;labelBackgroundColor=none;strokeWidth=1;fontFamily=Verdana;fontSize=8;align=center;" vertex="1" parent="77e6c97f196da883-6">
          <mxGeometry x="30" y="648" width="100" height="60" as="geometry" />
        </mxCell>
        <mxCell id="vTkwh2unY7aWWMfsaFMg-3" style="edgeStyle=orthogonalEdgeStyle;rounded=0;orthogonalLoop=1;jettySize=auto;html=1;exitX=1;exitY=0.5;exitDx=0;exitDy=0;entryX=0;entryY=0.5;entryDx=0;entryDy=0;fontSize=12;" edge="1" parent="77e6c97f196da883-1" source="77e6c97f196da883-11" target="77e6c97f196da883-9">
          <mxGeometry relative="1" as="geometry" />
        </mxCell>
        <mxCell id="77e6c97f196da883-29" style="edgeStyle=orthogonalEdgeStyle;rounded=1;html=1;labelBackgroundColor=none;startArrow=none;startFill=0;startSize=5;endArrow=classicThin;endFill=1;endSize=5;jettySize=auto;orthogonalLoop=1;strokeWidth=1;fontFamily=Verdana;fontSize=8;exitX=0.5;exitY=1;exitDx=0;exitDy=0;entryX=0.5;entryY=0;entryDx=0;entryDy=0;" parent="77e6c97f196da883-1" source="77e6c97f196da883-9" target="vTkwh2unY7aWWMfsaFMg-4" edge="1">
          <mxGeometry relative="1" as="geometry">
            <mxPoint x="400.04761904761904" y="235" as="sourcePoint" />
          </mxGeometry>
        </mxCell>
        <mxCell id="vTkwh2unY7aWWMfsaFMg-6" style="edgeStyle=orthogonalEdgeStyle;rounded=1;html=1;labelBackgroundColor=none;startArrow=none;startFill=0;startSize=5;endArrow=classicThin;endFill=1;endSize=5;jettySize=auto;orthogonalLoop=1;strokeWidth=1;fontFamily=Verdana;fontSize=8;exitX=1;exitY=0.5;exitDx=0;exitDy=0;entryX=0;entryY=0.5;entryDx=0;entryDy=0;" edge="1" parent="77e6c97f196da883-1" source="vTkwh2unY7aWWMfsaFMg-4" target="vTkwh2unY7aWWMfsaFMg-7">
          <mxGeometry relative="1" as="geometry">
            <mxPoint x="410" y="128" as="sourcePoint" />
            <mxPoint x="450" y="350" as="targetPoint" />
          </mxGeometry>
        </mxCell>
        <mxCell id="77e6c97f196da883-37" style="edgeStyle=orthogonalEdgeStyle;rounded=1;html=1;labelBackgroundColor=none;startArrow=none;startFill=0;startSize=5;endArrow=classicThin;endFill=1;endSize=5;jettySize=auto;orthogonalLoop=1;strokeWidth=1;fontFamily=Verdana;fontSize=8;exitX=1;exitY=0.5;exitDx=0;exitDy=0;entryX=0;entryY=0.5;entryDx=0;entryDy=0;" parent="77e6c97f196da883-1" source="vTkwh2unY7aWWMfsaFMg-8" target="vTkwh2unY7aWWMfsaFMg-5" edge="1">
          <mxGeometry relative="1" as="geometry">
            <mxPoint x="720.047619047619" y="480" as="sourcePoint" />
          </mxGeometry>
        </mxCell>
        <mxCell id="77e6c97f196da883-38" style="edgeStyle=orthogonalEdgeStyle;rounded=1;html=1;labelBackgroundColor=none;startArrow=none;startFill=0;startSize=5;endArrow=classicThin;endFill=1;endSize=5;jettySize=auto;orthogonalLoop=1;strokeWidth=1;fontFamily=Verdana;fontSize=8;exitX=0.5;exitY=1;exitDx=0;exitDy=0;entryX=0.5;entryY=0;entryDx=0;entryDy=0;" parent="77e6c97f196da883-1" source="vTkwh2unY7aWWMfsaFMg-5" target="vTkwh2unY7aWWMfsaFMg-10" edge="1">
          <mxGeometry relative="1" as="geometry" />
        </mxCell>
        <mxCell id="77e6c97f196da883-40" style="edgeStyle=orthogonalEdgeStyle;rounded=1;html=1;labelBackgroundColor=none;startArrow=none;startFill=0;startSize=5;endArrow=classicThin;endFill=1;endSize=5;jettySize=auto;orthogonalLoop=1;strokeWidth=1;fontFamily=Verdana;fontSize=8;exitX=0.5;exitY=1;exitDx=0;exitDy=0;" parent="77e6c97f196da883-1" source="77e6c97f196da883-21" target="77e6c97f196da883-24" edge="1">
          <mxGeometry relative="1" as="geometry" />
        </mxCell>
        <mxCell id="vTkwh2unY7aWWMfsaFMg-13" style="edgeStyle=orthogonalEdgeStyle;rounded=1;html=1;labelBackgroundColor=none;startArrow=none;startFill=0;startSize=5;endArrow=classicThin;endFill=1;endSize=5;jettySize=auto;orthogonalLoop=1;strokeWidth=1;fontFamily=Verdana;fontSize=8;exitX=0.5;exitY=1;exitDx=0;exitDy=0;entryX=0;entryY=0.5;entryDx=0;entryDy=0;" edge="1" parent="77e6c97f196da883-1" source="77e6c97f196da883-24" target="77e6c97f196da883-23">
          <mxGeometry relative="1" as="geometry">
            <mxPoint x="890" y="410" as="sourcePoint" />
            <mxPoint x="619.9999999999998" y="440" as="targetPoint" />
          </mxGeometry>
        </mxCell>
        <mxCell id="vTkwh2unY7aWWMfsaFMg-15" style="edgeStyle=orthogonalEdgeStyle;rounded=1;html=1;labelBackgroundColor=none;startArrow=none;startFill=0;startSize=5;endArrow=classicThin;endFill=1;endSize=5;jettySize=auto;orthogonalLoop=1;strokeWidth=1;fontFamily=Verdana;fontSize=8;exitX=0;exitY=0.5;exitDx=0;exitDy=0;" edge="1" parent="77e6c97f196da883-1" source="77e6c97f196da883-24" target="vTkwh2unY7aWWMfsaFMg-14">
          <mxGeometry relative="1" as="geometry">
            <mxPoint x="569.9999999999998" y="470" as="sourcePoint" />
            <mxPoint x="679.9999999999998" y="490" as="targetPoint" />
          </mxGeometry>
        </mxCell>
        <mxCell id="77e6c97f196da883-7" value="ЭДО Обоз" style="swimlane;html=1;startSize=20;" parent="77e6c97f196da883-1" vertex="1">
          <mxGeometry x="800" y="20" width="160" height="730" as="geometry" />
        </mxCell>
        <mxCell id="vTkwh2unY7aWWMfsaFMg-5" value="&lt;span style=&quot;font-size: 12px;&quot;&gt;Передача документа перевозчику&lt;/span&gt;" style="rounded=1;whiteSpace=wrap;html=1;shadow=0;labelBackgroundColor=none;strokeWidth=1;fontFamily=Verdana;fontSize=8;align=center;" vertex="1" parent="77e6c97f196da883-7">
          <mxGeometry x="30" y="221" width="100" height="60" as="geometry" />
        </mxCell>
        <mxCell id="77e6c97f196da883-21" value="&lt;font style=&quot;font-size: 12px;&quot;&gt;Синхронизация&lt;/font&gt;" style="rounded=1;whiteSpace=wrap;html=1;shadow=0;labelBackgroundColor=none;strokeWidth=1;fontFamily=Verdana;fontSize=8;align=center;" parent="77e6c97f196da883-7" vertex="1">
          <mxGeometry x="30" y="320" width="100" height="60" as="geometry" />
        </mxCell>
        <mxCell id="vTkwh2unY7aWWMfsaFMg-16" value="&lt;span style=&quot;font-size: 12px;&quot;&gt;Отзыв заявки&lt;/span&gt;" style="rounded=1;whiteSpace=wrap;html=1;shadow=0;labelBackgroundColor=none;strokeWidth=1;fontFamily=Verdana;fontSize=8;align=center;" vertex="1" parent="77e6c97f196da883-7">
          <mxGeometry x="30" y="540" width="100" height="60" as="geometry" />
        </mxCell>
        <mxCell id="vTkwh2unY7aWWMfsaFMg-18" style="edgeStyle=orthogonalEdgeStyle;rounded=1;html=1;labelBackgroundColor=none;startArrow=none;startFill=0;startSize=5;endArrow=classicThin;endFill=1;endSize=5;jettySize=auto;orthogonalLoop=1;strokeWidth=1;fontFamily=Verdana;fontSize=8;exitX=0;exitY=0.5;exitDx=0;exitDy=0;entryX=0.5;entryY=0;entryDx=0;entryDy=0;" edge="1" parent="77e6c97f196da883-1" source="77e6c97f196da883-20" target="vTkwh2unY7aWWMfsaFMg-17">
          <mxGeometry relative="1" as="geometry">
            <mxPoint x="569.9999999999998" y="470" as="sourcePoint" />
            <mxPoint x="679.9999999999998" y="490" as="targetPoint" />
          </mxGeometry>
        </mxCell>
        <mxCell id="vTkwh2unY7aWWMfsaFMg-22" style="edgeStyle=orthogonalEdgeStyle;rounded=1;html=1;labelBackgroundColor=none;startArrow=none;startFill=0;startSize=5;endArrow=classicThin;endFill=1;endSize=5;jettySize=auto;orthogonalLoop=1;strokeWidth=1;fontFamily=Verdana;fontSize=8;exitX=1;exitY=0.5;exitDx=0;exitDy=0;entryX=0;entryY=0.5;entryDx=0;entryDy=0;" edge="1" parent="77e6c97f196da883-1" source="vTkwh2unY7aWWMfsaFMg-17" target="vTkwh2unY7aWWMfsaFMg-16">
          <mxGeometry relative="1" as="geometry">
            <mxPoint x="359.9999999999998" y="545" as="sourcePoint" />
            <mxPoint x="90" y="570" as="targetPoint" />
          </mxGeometry>
        </mxCell>
        <mxCell id="vTkwh2unY7aWWMfsaFMg-23" style="edgeStyle=orthogonalEdgeStyle;rounded=1;html=1;labelBackgroundColor=none;startArrow=none;startFill=0;startSize=5;endArrow=classicThin;endFill=1;endSize=5;jettySize=auto;orthogonalLoop=1;strokeWidth=1;fontFamily=Verdana;fontSize=8;exitX=0.5;exitY=1;exitDx=0;exitDy=0;entryX=0.5;entryY=0;entryDx=0;entryDy=0;" edge="1" parent="77e6c97f196da883-1" source="vTkwh2unY7aWWMfsaFMg-16" target="vTkwh2unY7aWWMfsaFMg-19">
          <mxGeometry relative="1" as="geometry">
            <mxPoint x="569.9999999999998" y="470" as="sourcePoint" />
            <mxPoint x="679.9999999999998" y="490" as="targetPoint" />
          </mxGeometry>
        </mxCell>
        <mxCell id="vTkwh2unY7aWWMfsaFMg-24" style="edgeStyle=orthogonalEdgeStyle;rounded=1;html=1;labelBackgroundColor=none;startArrow=none;startFill=0;startSize=5;endArrow=classicThin;endFill=1;endSize=5;jettySize=auto;orthogonalLoop=1;strokeWidth=1;fontFamily=Verdana;fontSize=8;exitX=1;exitY=0.5;exitDx=0;exitDy=0;entryX=0;entryY=0.5;entryDx=0;entryDy=0;" edge="1" parent="77e6c97f196da883-1" source="vTkwh2unY7aWWMfsaFMg-19" target="vTkwh2unY7aWWMfsaFMg-21">
          <mxGeometry relative="1" as="geometry">
            <mxPoint x="890" y="630" as="sourcePoint" />
            <mxPoint x="569.9999999999998" y="678" as="targetPoint" />
          </mxGeometry>
        </mxCell>
      </root>
    </mxGraphModel>
  </diagram>
  <diagram name="billing_edo_signing" id="Roi8DYaLlHc2xaYe0jnh">
    <mxGraphModel dx="1426" dy="1652" grid="1" gridSize="10" guides="1" tooltips="1" connect="1" arrows="1" fold="1" page="1" pageScale="1" pageWidth="1169" pageHeight="827" background="none" math="0" shadow="0">
      <root>
        <mxCell id="zLFdjvDLcjERJrfDTsvK-0" />
        <mxCell id="zLFdjvDLcjERJrfDTsvK-1" parent="zLFdjvDLcjERJrfDTsvK-0" />
        <mxCell id="zLFdjvDLcjERJrfDTsvK-2" value="EDO signing" style="swimlane;html=1;childLayout=stackLayout;startSize=20;rounded=0;shadow=0;labelBackgroundColor=none;strokeWidth=1;fontFamily=Verdana;fontSize=8;align=center;" vertex="1" parent="zLFdjvDLcjERJrfDTsvK-1">
          <mxGeometry x="240" y="-80" width="960" height="750" as="geometry">
            <mxRectangle x="70" y="40" width="90" height="20" as="alternateBounds" />
          </mxGeometry>
        </mxCell>
        <mxCell id="zLFdjvDLcjERJrfDTsvK-3" value="ЭДО Перевозчика" style="swimlane;html=1;startSize=20;" vertex="1" parent="zLFdjvDLcjERJrfDTsvK-2">
          <mxGeometry y="20" width="160" height="730" as="geometry" />
        </mxCell>
        <mxCell id="zLFdjvDLcjERJrfDTsvK-4" value="&lt;span style=&quot;font-size: 12px;&quot;&gt;Подписание поручения - заявки&lt;/span&gt;" style="rounded=1;whiteSpace=wrap;html=1;shadow=0;labelBackgroundColor=none;strokeWidth=1;fontFamily=Verdana;fontSize=8;align=center;" vertex="1" parent="zLFdjvDLcjERJrfDTsvK-3">
          <mxGeometry x="30" y="320" width="100" height="60" as="geometry" />
        </mxCell>
        <mxCell id="zLFdjvDLcjERJrfDTsvK-5" value="&lt;span style=&quot;font-size: 12px;&quot;&gt;Отзыв заявки&lt;/span&gt;" style="rounded=1;whiteSpace=wrap;html=1;shadow=0;labelBackgroundColor=none;strokeWidth=1;fontFamily=Verdana;fontSize=8;align=center;" vertex="1" parent="zLFdjvDLcjERJrfDTsvK-3">
          <mxGeometry x="30" y="540" width="100" height="60" as="geometry" />
        </mxCell>
        <mxCell id="zLFdjvDLcjERJrfDTsvK-6" style="edgeStyle=orthogonalEdgeStyle;rounded=1;html=1;labelBackgroundColor=none;startArrow=none;startFill=0;startSize=5;endArrow=classicThin;endFill=1;endSize=5;jettySize=auto;orthogonalLoop=1;strokeWidth=1;fontFamily=Verdana;fontSize=8;exitX=1;exitY=0.5;exitDx=0;exitDy=0;entryX=0;entryY=0.5;entryDx=0;entryDy=0;" edge="1" parent="zLFdjvDLcjERJrfDTsvK-2" source="zLFdjvDLcjERJrfDTsvK-4" target="zLFdjvDLcjERJrfDTsvK-34">
          <mxGeometry relative="1" as="geometry" />
        </mxCell>
        <mxCell id="zLFdjvDLcjERJrfDTsvK-7" value="ЛК Перевозчика (Обоз)" style="swimlane;html=1;startSize=20;" vertex="1" parent="zLFdjvDLcjERJrfDTsvK-2">
          <mxGeometry x="160" y="20" width="160" height="730" as="geometry" />
        </mxCell>
        <mxCell id="zLFdjvDLcjERJrfDTsvK-9" value="ЛК Логиста (Обоз)" style="swimlane;html=1;startSize=20;" vertex="1" parent="zLFdjvDLcjERJrfDTsvK-2">
          <mxGeometry x="320" y="20" width="160" height="730" as="geometry" />
        </mxCell>
        <mxCell id="zLFdjvDLcjERJrfDTsvK-10" value="&lt;span style=&quot;font-size: 12px;&quot;&gt;Нажимает кнопку &quot;подписать&quot;&lt;/span&gt;" style="rounded=1;whiteSpace=wrap;html=1;shadow=0;labelBackgroundColor=none;strokeWidth=1;fontFamily=Verdana;fontSize=8;align=center;" vertex="1" parent="zLFdjvDLcjERJrfDTsvK-9">
          <mxGeometry x="30" y="138" width="100" height="60" as="geometry" />
        </mxCell>
        <mxCell id="zLFdjvDLcjERJrfDTsvK-11" value="&lt;font style=&quot;font-size: 12px;&quot;&gt;Просмотр полностью подписанного документа (возможность загрузить)&lt;/font&gt;" style="rounded=1;whiteSpace=wrap;html=1;shadow=0;labelBackgroundColor=none;strokeWidth=1;fontFamily=Verdana;fontSize=8;align=center;" vertex="1" parent="zLFdjvDLcjERJrfDTsvK-9">
          <mxGeometry x="-130" y="380" width="260" height="60" as="geometry" />
        </mxCell>
        <mxCell id="zLFdjvDLcjERJrfDTsvK-12" value="&lt;font style=&quot;font-size: 12px;&quot;&gt;Отозвать?&lt;/font&gt;" style="rhombus;whiteSpace=wrap;html=1;rounded=0;shadow=0;labelBackgroundColor=none;strokeWidth=1;fontFamily=Verdana;fontSize=8;align=center;" vertex="1" parent="zLFdjvDLcjERJrfDTsvK-9">
          <mxGeometry x="30" y="485" width="80" height="60" as="geometry" />
        </mxCell>
        <mxCell id="zLFdjvDLcjERJrfDTsvK-13" style="edgeStyle=orthogonalEdgeStyle;rounded=1;html=1;labelBackgroundColor=none;startArrow=none;startFill=0;startSize=5;endArrow=classicThin;endFill=1;endSize=5;jettySize=auto;orthogonalLoop=1;strokeWidth=1;fontFamily=Verdana;fontSize=8" edge="1" parent="zLFdjvDLcjERJrfDTsvK-9" source="zLFdjvDLcjERJrfDTsvK-11" target="zLFdjvDLcjERJrfDTsvK-12">
          <mxGeometry relative="1" as="geometry">
            <mxPoint x="239.99999999999977" y="620" as="sourcePoint" />
          </mxGeometry>
        </mxCell>
        <mxCell id="zLFdjvDLcjERJrfDTsvK-14" value="Обоз" style="swimlane;html=1;startSize=20;" vertex="1" parent="zLFdjvDLcjERJrfDTsvK-2">
          <mxGeometry x="480" y="20" width="160" height="730" as="geometry" />
        </mxCell>
        <mxCell id="zLFdjvDLcjERJrfDTsvK-15" value="&lt;font style=&quot;font-size: 12px;&quot;&gt;Генерация поручения - заявки на перевозку&lt;/font&gt;" style="rounded=1;whiteSpace=wrap;html=1;shadow=0;labelBackgroundColor=none;strokeWidth=1;fontFamily=Verdana;fontSize=8;align=center;" vertex="1" parent="zLFdjvDLcjERJrfDTsvK-14">
          <mxGeometry x="30" y="37" width="100" height="60" as="geometry" />
        </mxCell>
        <mxCell id="zLFdjvDLcjERJrfDTsvK-16" value="&lt;span style=&quot;font-size: 12px;&quot;&gt;Подписание поручения - заявки&lt;/span&gt;" style="rounded=1;whiteSpace=wrap;html=1;shadow=0;labelBackgroundColor=none;strokeWidth=1;fontFamily=Verdana;fontSize=8;align=center;" vertex="1" parent="zLFdjvDLcjERJrfDTsvK-14">
          <mxGeometry x="30" y="138" width="100" height="60" as="geometry" />
        </mxCell>
        <mxCell id="zLFdjvDLcjERJrfDTsvK-17" value="&lt;span style=&quot;font-size: 12px;&quot;&gt;Загрузка поручения - заявки в ЭДО (СБИС)&lt;/span&gt;" style="rounded=1;whiteSpace=wrap;html=1;shadow=0;labelBackgroundColor=none;strokeWidth=1;fontFamily=Verdana;fontSize=8;align=center;" vertex="1" parent="zLFdjvDLcjERJrfDTsvK-14">
          <mxGeometry x="30" y="221" width="100" height="60" as="geometry" />
        </mxCell>
        <mxCell id="zLFdjvDLcjERJrfDTsvK-18" style="edgeStyle=orthogonalEdgeStyle;rounded=1;html=1;labelBackgroundColor=none;startArrow=none;startFill=0;startSize=5;endArrow=classicThin;endFill=1;endSize=5;jettySize=auto;orthogonalLoop=1;strokeWidth=1;fontFamily=Verdana;fontSize=8;entryX=0.5;entryY=0;entryDx=0;entryDy=0;exitX=0.5;exitY=1;exitDx=0;exitDy=0;" edge="1" parent="zLFdjvDLcjERJrfDTsvK-14" source="zLFdjvDLcjERJrfDTsvK-16" target="zLFdjvDLcjERJrfDTsvK-17">
          <mxGeometry relative="1" as="geometry">
            <mxPoint x="80" y="210" as="sourcePoint" />
            <mxPoint x="40" y="178" as="targetPoint" />
          </mxGeometry>
        </mxCell>
        <mxCell id="zLFdjvDLcjERJrfDTsvK-19" value="&lt;font style=&quot;font-size: 12px;&quot;&gt;Загрузка подписанного с двух сторон документа&lt;/font&gt;" style="rounded=1;whiteSpace=wrap;html=1;shadow=0;labelBackgroundColor=none;strokeWidth=1;fontFamily=Verdana;fontSize=8;align=center;" vertex="1" parent="zLFdjvDLcjERJrfDTsvK-14">
          <mxGeometry x="30" y="380" width="100" height="60" as="geometry" />
        </mxCell>
        <mxCell id="zLFdjvDLcjERJrfDTsvK-20" value="&lt;span style=&quot;font-size: 12px;&quot;&gt;Удаление отозванной заявки&lt;/span&gt;" style="rounded=1;whiteSpace=wrap;html=1;shadow=0;labelBackgroundColor=none;strokeWidth=1;fontFamily=Verdana;fontSize=8;align=center;" vertex="1" parent="zLFdjvDLcjERJrfDTsvK-14">
          <mxGeometry x="30" y="648" width="100" height="60" as="geometry" />
        </mxCell>
        <mxCell id="zLFdjvDLcjERJrfDTsvK-21" value="Документоборот (1С УНФ)" style="swimlane;html=1;startSize=20;" vertex="1" parent="zLFdjvDLcjERJrfDTsvK-2">
          <mxGeometry x="640" y="20" width="160" height="730" as="geometry" />
        </mxCell>
        <mxCell id="zLFdjvDLcjERJrfDTsvK-22" value="&lt;font style=&quot;font-size: 12px;&quot;&gt;Просмотр документа (возможность загрузить)&amp;nbsp;&lt;/font&gt;" style="rounded=1;whiteSpace=wrap;html=1;shadow=0;labelBackgroundColor=none;strokeWidth=1;fontFamily=Verdana;fontSize=8;align=center;" vertex="1" parent="zLFdjvDLcjERJrfDTsvK-21">
          <mxGeometry x="30" y="430" width="100" height="60" as="geometry" />
        </mxCell>
        <mxCell id="zLFdjvDLcjERJrfDTsvK-23" value="&lt;span style=&quot;font-size: 12px;&quot;&gt;Удаление отозванной заявки&lt;/span&gt;" style="rounded=1;whiteSpace=wrap;html=1;shadow=0;labelBackgroundColor=none;strokeWidth=1;fontFamily=Verdana;fontSize=8;align=center;" vertex="1" parent="zLFdjvDLcjERJrfDTsvK-21">
          <mxGeometry x="30" y="648" width="100" height="60" as="geometry" />
        </mxCell>
        <mxCell id="lW1GuK-YomCOsptx6bwo-1" value="&lt;span style=&quot;font-size: 12px;&quot;&gt;Отметка о комлекте и валидности ТСД&lt;/span&gt;" style="rounded=1;whiteSpace=wrap;html=1;shadow=0;labelBackgroundColor=none;strokeWidth=1;fontFamily=Verdana;fontSize=8;align=center;" vertex="1" parent="zLFdjvDLcjERJrfDTsvK-21">
          <mxGeometry x="30" y="37" width="100" height="60" as="geometry" />
        </mxCell>
        <mxCell id="zLFdjvDLcjERJrfDTsvK-25" style="edgeStyle=orthogonalEdgeStyle;rounded=1;html=1;labelBackgroundColor=none;startArrow=none;startFill=0;startSize=5;endArrow=classicThin;endFill=1;endSize=5;jettySize=auto;orthogonalLoop=1;strokeWidth=1;fontFamily=Verdana;fontSize=8;exitX=0.5;exitY=1;exitDx=0;exitDy=0;entryX=0.5;entryY=0;entryDx=0;entryDy=0;" edge="1" parent="zLFdjvDLcjERJrfDTsvK-2" source="zLFdjvDLcjERJrfDTsvK-15" target="zLFdjvDLcjERJrfDTsvK-10">
          <mxGeometry relative="1" as="geometry">
            <mxPoint x="400.04761904761904" y="235" as="sourcePoint" />
          </mxGeometry>
        </mxCell>
        <mxCell id="zLFdjvDLcjERJrfDTsvK-26" style="edgeStyle=orthogonalEdgeStyle;rounded=1;html=1;labelBackgroundColor=none;startArrow=none;startFill=0;startSize=5;endArrow=classicThin;endFill=1;endSize=5;jettySize=auto;orthogonalLoop=1;strokeWidth=1;fontFamily=Verdana;fontSize=8;exitX=1;exitY=0.5;exitDx=0;exitDy=0;entryX=0;entryY=0.5;entryDx=0;entryDy=0;" edge="1" parent="zLFdjvDLcjERJrfDTsvK-2" source="zLFdjvDLcjERJrfDTsvK-10" target="zLFdjvDLcjERJrfDTsvK-16">
          <mxGeometry relative="1" as="geometry">
            <mxPoint x="410" y="128" as="sourcePoint" />
            <mxPoint x="450" y="350" as="targetPoint" />
          </mxGeometry>
        </mxCell>
        <mxCell id="zLFdjvDLcjERJrfDTsvK-27" style="edgeStyle=orthogonalEdgeStyle;rounded=1;html=1;labelBackgroundColor=none;startArrow=none;startFill=0;startSize=5;endArrow=classicThin;endFill=1;endSize=5;jettySize=auto;orthogonalLoop=1;strokeWidth=1;fontFamily=Verdana;fontSize=8;exitX=1;exitY=0.5;exitDx=0;exitDy=0;entryX=0;entryY=0.5;entryDx=0;entryDy=0;" edge="1" parent="zLFdjvDLcjERJrfDTsvK-2" source="zLFdjvDLcjERJrfDTsvK-17" target="zLFdjvDLcjERJrfDTsvK-33">
          <mxGeometry relative="1" as="geometry">
            <mxPoint x="720.047619047619" y="480" as="sourcePoint" />
          </mxGeometry>
        </mxCell>
        <mxCell id="zLFdjvDLcjERJrfDTsvK-28" style="edgeStyle=orthogonalEdgeStyle;rounded=1;html=1;labelBackgroundColor=none;startArrow=none;startFill=0;startSize=5;endArrow=classicThin;endFill=1;endSize=5;jettySize=auto;orthogonalLoop=1;strokeWidth=1;fontFamily=Verdana;fontSize=8;exitX=0.5;exitY=1;exitDx=0;exitDy=0;entryX=0.5;entryY=0;entryDx=0;entryDy=0;" edge="1" parent="zLFdjvDLcjERJrfDTsvK-2" source="zLFdjvDLcjERJrfDTsvK-33" target="zLFdjvDLcjERJrfDTsvK-4">
          <mxGeometry relative="1" as="geometry" />
        </mxCell>
        <mxCell id="zLFdjvDLcjERJrfDTsvK-29" style="edgeStyle=orthogonalEdgeStyle;rounded=1;html=1;labelBackgroundColor=none;startArrow=none;startFill=0;startSize=5;endArrow=classicThin;endFill=1;endSize=5;jettySize=auto;orthogonalLoop=1;strokeWidth=1;fontFamily=Verdana;fontSize=8;exitX=0.5;exitY=1;exitDx=0;exitDy=0;" edge="1" parent="zLFdjvDLcjERJrfDTsvK-2" source="zLFdjvDLcjERJrfDTsvK-34" target="zLFdjvDLcjERJrfDTsvK-19">
          <mxGeometry relative="1" as="geometry" />
        </mxCell>
        <mxCell id="zLFdjvDLcjERJrfDTsvK-30" style="edgeStyle=orthogonalEdgeStyle;rounded=1;html=1;labelBackgroundColor=none;startArrow=none;startFill=0;startSize=5;endArrow=classicThin;endFill=1;endSize=5;jettySize=auto;orthogonalLoop=1;strokeWidth=1;fontFamily=Verdana;fontSize=8;exitX=0.5;exitY=1;exitDx=0;exitDy=0;entryX=0;entryY=0.5;entryDx=0;entryDy=0;" edge="1" parent="zLFdjvDLcjERJrfDTsvK-2" source="zLFdjvDLcjERJrfDTsvK-19" target="zLFdjvDLcjERJrfDTsvK-22">
          <mxGeometry relative="1" as="geometry">
            <mxPoint x="890" y="410" as="sourcePoint" />
            <mxPoint x="619.9999999999998" y="440" as="targetPoint" />
          </mxGeometry>
        </mxCell>
        <mxCell id="zLFdjvDLcjERJrfDTsvK-31" style="edgeStyle=orthogonalEdgeStyle;rounded=1;html=1;labelBackgroundColor=none;startArrow=none;startFill=0;startSize=5;endArrow=classicThin;endFill=1;endSize=5;jettySize=auto;orthogonalLoop=1;strokeWidth=1;fontFamily=Verdana;fontSize=8;exitX=0;exitY=0.5;exitDx=0;exitDy=0;" edge="1" parent="zLFdjvDLcjERJrfDTsvK-2" source="zLFdjvDLcjERJrfDTsvK-19" target="zLFdjvDLcjERJrfDTsvK-11">
          <mxGeometry relative="1" as="geometry">
            <mxPoint x="569.9999999999998" y="470" as="sourcePoint" />
            <mxPoint x="679.9999999999998" y="490" as="targetPoint" />
          </mxGeometry>
        </mxCell>
        <mxCell id="zLFdjvDLcjERJrfDTsvK-32" value="ЭДО Обоз" style="swimlane;html=1;startSize=20;" vertex="1" parent="zLFdjvDLcjERJrfDTsvK-2">
          <mxGeometry x="800" y="20" width="160" height="730" as="geometry" />
        </mxCell>
        <mxCell id="zLFdjvDLcjERJrfDTsvK-33" value="&lt;span style=&quot;font-size: 12px;&quot;&gt;Передача документа перевозчику&lt;/span&gt;" style="rounded=1;whiteSpace=wrap;html=1;shadow=0;labelBackgroundColor=none;strokeWidth=1;fontFamily=Verdana;fontSize=8;align=center;" vertex="1" parent="zLFdjvDLcjERJrfDTsvK-32">
          <mxGeometry x="30" y="221" width="100" height="60" as="geometry" />
        </mxCell>
        <mxCell id="zLFdjvDLcjERJrfDTsvK-34" value="&lt;font style=&quot;font-size: 12px;&quot;&gt;Синхронизация&lt;/font&gt;" style="rounded=1;whiteSpace=wrap;html=1;shadow=0;labelBackgroundColor=none;strokeWidth=1;fontFamily=Verdana;fontSize=8;align=center;" vertex="1" parent="zLFdjvDLcjERJrfDTsvK-32">
          <mxGeometry x="30" y="320" width="100" height="60" as="geometry" />
        </mxCell>
        <mxCell id="zLFdjvDLcjERJrfDTsvK-35" value="&lt;span style=&quot;font-size: 12px;&quot;&gt;Отзыв заявки&lt;/span&gt;" style="rounded=1;whiteSpace=wrap;html=1;shadow=0;labelBackgroundColor=none;strokeWidth=1;fontFamily=Verdana;fontSize=8;align=center;" vertex="1" parent="zLFdjvDLcjERJrfDTsvK-32">
          <mxGeometry x="30" y="540" width="100" height="60" as="geometry" />
        </mxCell>
        <mxCell id="zLFdjvDLcjERJrfDTsvK-36" style="edgeStyle=orthogonalEdgeStyle;rounded=1;html=1;labelBackgroundColor=none;startArrow=none;startFill=0;startSize=5;endArrow=classicThin;endFill=1;endSize=5;jettySize=auto;orthogonalLoop=1;strokeWidth=1;fontFamily=Verdana;fontSize=8;exitX=0;exitY=0.5;exitDx=0;exitDy=0;entryX=0.5;entryY=0;entryDx=0;entryDy=0;" edge="1" parent="zLFdjvDLcjERJrfDTsvK-2" source="zLFdjvDLcjERJrfDTsvK-12" target="zLFdjvDLcjERJrfDTsvK-5">
          <mxGeometry relative="1" as="geometry">
            <mxPoint x="569.9999999999998" y="470" as="sourcePoint" />
            <mxPoint x="679.9999999999998" y="490" as="targetPoint" />
          </mxGeometry>
        </mxCell>
        <mxCell id="zLFdjvDLcjERJrfDTsvK-37" style="edgeStyle=orthogonalEdgeStyle;rounded=1;html=1;labelBackgroundColor=none;startArrow=none;startFill=0;startSize=5;endArrow=classicThin;endFill=1;endSize=5;jettySize=auto;orthogonalLoop=1;strokeWidth=1;fontFamily=Verdana;fontSize=8;exitX=1;exitY=0.5;exitDx=0;exitDy=0;entryX=0;entryY=0.5;entryDx=0;entryDy=0;" edge="1" parent="zLFdjvDLcjERJrfDTsvK-2" source="zLFdjvDLcjERJrfDTsvK-5" target="zLFdjvDLcjERJrfDTsvK-35">
          <mxGeometry relative="1" as="geometry">
            <mxPoint x="359.9999999999998" y="545" as="sourcePoint" />
            <mxPoint x="90" y="570" as="targetPoint" />
          </mxGeometry>
        </mxCell>
        <mxCell id="zLFdjvDLcjERJrfDTsvK-38" style="edgeStyle=orthogonalEdgeStyle;rounded=1;html=1;labelBackgroundColor=none;startArrow=none;startFill=0;startSize=5;endArrow=classicThin;endFill=1;endSize=5;jettySize=auto;orthogonalLoop=1;strokeWidth=1;fontFamily=Verdana;fontSize=8;exitX=0.5;exitY=1;exitDx=0;exitDy=0;entryX=0.5;entryY=0;entryDx=0;entryDy=0;" edge="1" parent="zLFdjvDLcjERJrfDTsvK-2" source="zLFdjvDLcjERJrfDTsvK-35" target="zLFdjvDLcjERJrfDTsvK-20">
          <mxGeometry relative="1" as="geometry">
            <mxPoint x="569.9999999999998" y="470" as="sourcePoint" />
            <mxPoint x="679.9999999999998" y="490" as="targetPoint" />
          </mxGeometry>
        </mxCell>
        <mxCell id="zLFdjvDLcjERJrfDTsvK-39" style="edgeStyle=orthogonalEdgeStyle;rounded=1;html=1;labelBackgroundColor=none;startArrow=none;startFill=0;startSize=5;endArrow=classicThin;endFill=1;endSize=5;jettySize=auto;orthogonalLoop=1;strokeWidth=1;fontFamily=Verdana;fontSize=8;exitX=1;exitY=0.5;exitDx=0;exitDy=0;entryX=0;entryY=0.5;entryDx=0;entryDy=0;" edge="1" parent="zLFdjvDLcjERJrfDTsvK-2" source="zLFdjvDLcjERJrfDTsvK-20" target="zLFdjvDLcjERJrfDTsvK-23">
          <mxGeometry relative="1" as="geometry">
            <mxPoint x="890" y="630" as="sourcePoint" />
            <mxPoint x="569.9999999999998" y="678" as="targetPoint" />
          </mxGeometry>
        </mxCell>
      </root>
    </mxGraphModel>
  </diagram>
  <diagram name="order_oboz_signing" id="qLhOa0uSGEPdHdig_1qz">
    <mxGraphModel dx="1426" dy="1652" grid="1" gridSize="10" guides="1" tooltips="1" connect="1" arrows="1" fold="1" page="1" pageScale="1" pageWidth="1169" pageHeight="827" background="none" math="0" shadow="0">
      <root>
        <mxCell id="VtodIQZo-vzemh34pdGO-0" />
        <mxCell id="VtodIQZo-vzemh34pdGO-1" parent="VtodIQZo-vzemh34pdGO-0" />
        <mxCell id="VtodIQZo-vzemh34pdGO-2" value="Oboz signing" style="swimlane;html=1;childLayout=stackLayout;startSize=20;rounded=0;shadow=0;labelBackgroundColor=none;strokeWidth=1;fontFamily=Verdana;fontSize=8;align=center;" vertex="1" parent="VtodIQZo-vzemh34pdGO-1">
          <mxGeometry x="240" y="-80" width="960" height="750" as="geometry">
            <mxRectangle x="70" y="40" width="90" height="20" as="alternateBounds" />
          </mxGeometry>
        </mxCell>
        <mxCell id="VtodIQZo-vzemh34pdGO-3" value="ЭДО Перевозчика" style="swimlane;html=1;startSize=20;" vertex="1" parent="VtodIQZo-vzemh34pdGO-2">
          <mxGeometry y="20" width="160" height="730" as="geometry" />
        </mxCell>
        <mxCell id="VtodIQZo-vzemh34pdGO-5" value="&lt;span style=&quot;font-size: 12px;&quot;&gt;Отзыв заявки&lt;/span&gt;" style="rounded=1;whiteSpace=wrap;html=1;shadow=0;labelBackgroundColor=none;strokeWidth=1;fontFamily=Verdana;fontSize=8;align=center;" vertex="1" parent="VtodIQZo-vzemh34pdGO-3">
          <mxGeometry x="30" y="540" width="100" height="60" as="geometry" />
        </mxCell>
        <mxCell id="VtodIQZo-vzemh34pdGO-7" value="ЛК Перевозчика (Обоз)" style="swimlane;html=1;startSize=20;" vertex="1" parent="VtodIQZo-vzemh34pdGO-2">
          <mxGeometry x="160" y="20" width="160" height="730" as="geometry" />
        </mxCell>
        <mxCell id="VtodIQZo-vzemh34pdGO-8" value="&lt;font style=&quot;font-size: 12px;&quot;&gt;Назначение ресурсов&lt;/font&gt;" style="rounded=1;whiteSpace=wrap;html=1;shadow=0;labelBackgroundColor=none;strokeWidth=1;fontFamily=Verdana;fontSize=8;align=center;" vertex="1" parent="VtodIQZo-vzemh34pdGO-7">
          <mxGeometry x="28" y="37" width="260" height="60" as="geometry" />
        </mxCell>
        <mxCell id="VtodIQZo-vzemh34pdGO-33" value="&lt;span style=&quot;font-size: 12px;&quot;&gt;Подписание поручения-заявки&lt;/span&gt;" style="rounded=1;whiteSpace=wrap;html=1;shadow=0;labelBackgroundColor=none;strokeWidth=1;fontFamily=Verdana;fontSize=8;align=center;" vertex="1" parent="VtodIQZo-vzemh34pdGO-7">
          <mxGeometry x="30" y="221" width="100" height="60" as="geometry" />
        </mxCell>
        <mxCell id="VtodIQZo-vzemh34pdGO-9" value="ЛК Логиста (Обоз)" style="swimlane;html=1;startSize=20;" vertex="1" parent="VtodIQZo-vzemh34pdGO-2">
          <mxGeometry x="320" y="20" width="160" height="730" as="geometry" />
        </mxCell>
        <mxCell id="VtodIQZo-vzemh34pdGO-10" value="&lt;span style=&quot;font-size: 12px;&quot;&gt;Нажимает кнопку &quot;подписать&quot;&lt;/span&gt;" style="rounded=1;whiteSpace=wrap;html=1;shadow=0;labelBackgroundColor=none;strokeWidth=1;fontFamily=Verdana;fontSize=8;align=center;" vertex="1" parent="VtodIQZo-vzemh34pdGO-9">
          <mxGeometry x="30" y="138" width="100" height="60" as="geometry" />
        </mxCell>
        <mxCell id="VtodIQZo-vzemh34pdGO-11" value="&lt;font style=&quot;font-size: 12px;&quot;&gt;Просмотр полностью подписанного документа (возможность загрузить)&lt;/font&gt;" style="rounded=1;whiteSpace=wrap;html=1;shadow=0;labelBackgroundColor=none;strokeWidth=1;fontFamily=Verdana;fontSize=8;align=center;" vertex="1" parent="VtodIQZo-vzemh34pdGO-9">
          <mxGeometry x="-130" y="373" width="260" height="60" as="geometry" />
        </mxCell>
        <mxCell id="VtodIQZo-vzemh34pdGO-12" value="&lt;font style=&quot;font-size: 12px;&quot;&gt;Отозвать?&lt;/font&gt;" style="rhombus;whiteSpace=wrap;html=1;rounded=0;shadow=0;labelBackgroundColor=none;strokeWidth=1;fontFamily=Verdana;fontSize=8;align=center;" vertex="1" parent="VtodIQZo-vzemh34pdGO-9">
          <mxGeometry x="39" y="472" width="80" height="60" as="geometry" />
        </mxCell>
        <mxCell id="VtodIQZo-vzemh34pdGO-13" style="edgeStyle=orthogonalEdgeStyle;rounded=1;html=1;labelBackgroundColor=none;startArrow=none;startFill=0;startSize=5;endArrow=classicThin;endFill=1;endSize=5;jettySize=auto;orthogonalLoop=1;strokeWidth=1;fontFamily=Verdana;fontSize=8" edge="1" parent="VtodIQZo-vzemh34pdGO-9" source="VtodIQZo-vzemh34pdGO-11" target="VtodIQZo-vzemh34pdGO-12">
          <mxGeometry relative="1" as="geometry">
            <mxPoint x="239.99999999999977" y="620" as="sourcePoint" />
          </mxGeometry>
        </mxCell>
        <mxCell id="VtodIQZo-vzemh34pdGO-14" value="Обоз" style="swimlane;html=1;startSize=20;" vertex="1" parent="VtodIQZo-vzemh34pdGO-2">
          <mxGeometry x="480" y="20" width="160" height="730" as="geometry" />
        </mxCell>
        <mxCell id="VtodIQZo-vzemh34pdGO-15" value="&lt;font style=&quot;font-size: 12px;&quot;&gt;Генерация поручения - заявки на перевозку&lt;/font&gt;" style="rounded=1;whiteSpace=wrap;html=1;shadow=0;labelBackgroundColor=none;strokeWidth=1;fontFamily=Verdana;fontSize=8;align=center;" vertex="1" parent="VtodIQZo-vzemh34pdGO-14">
          <mxGeometry x="30" y="37" width="100" height="60" as="geometry" />
        </mxCell>
        <mxCell id="VtodIQZo-vzemh34pdGO-16" value="&lt;span style=&quot;font-size: 12px;&quot;&gt;Подписание поручения - заявки&lt;/span&gt;" style="rounded=1;whiteSpace=wrap;html=1;shadow=0;labelBackgroundColor=none;strokeWidth=1;fontFamily=Verdana;fontSize=8;align=center;" vertex="1" parent="VtodIQZo-vzemh34pdGO-14">
          <mxGeometry x="30" y="138" width="100" height="60" as="geometry" />
        </mxCell>
        <mxCell id="VtodIQZo-vzemh34pdGO-20" value="&lt;span style=&quot;font-size: 12px;&quot;&gt;Удаление отозванной заявки&lt;/span&gt;" style="rounded=1;whiteSpace=wrap;html=1;shadow=0;labelBackgroundColor=none;strokeWidth=1;fontFamily=Verdana;fontSize=8;align=center;" vertex="1" parent="VtodIQZo-vzemh34pdGO-14">
          <mxGeometry x="30" y="648" width="100" height="60" as="geometry" />
        </mxCell>
        <mxCell id="VtodIQZo-vzemh34pdGO-4" value="&lt;span style=&quot;font-size: 12px;&quot;&gt;Передача данных в ЭДО&lt;/span&gt;" style="rounded=1;whiteSpace=wrap;html=1;shadow=0;labelBackgroundColor=none;strokeWidth=1;fontFamily=Verdana;fontSize=8;align=center;" vertex="1" parent="VtodIQZo-vzemh34pdGO-14">
          <mxGeometry x="30" y="271" width="100" height="60" as="geometry" />
        </mxCell>
        <mxCell id="VtodIQZo-vzemh34pdGO-21" value="Документоборот (1С УНФ)" style="swimlane;html=1;startSize=20;" vertex="1" parent="VtodIQZo-vzemh34pdGO-2">
          <mxGeometry x="640" y="20" width="160" height="730" as="geometry" />
        </mxCell>
        <mxCell id="VtodIQZo-vzemh34pdGO-22" value="&lt;font style=&quot;font-size: 12px;&quot;&gt;Просмотр документа (возможность загрузить)&amp;nbsp;&lt;/font&gt;" style="rounded=1;whiteSpace=wrap;html=1;shadow=0;labelBackgroundColor=none;strokeWidth=1;fontFamily=Verdana;fontSize=8;align=center;" vertex="1" parent="VtodIQZo-vzemh34pdGO-21">
          <mxGeometry x="30" y="370" width="100" height="60" as="geometry" />
        </mxCell>
        <mxCell id="VtodIQZo-vzemh34pdGO-23" value="&lt;span style=&quot;font-size: 12px;&quot;&gt;Удаление отозванной заявки&lt;/span&gt;" style="rounded=1;whiteSpace=wrap;html=1;shadow=0;labelBackgroundColor=none;strokeWidth=1;fontFamily=Verdana;fontSize=8;align=center;" vertex="1" parent="VtodIQZo-vzemh34pdGO-21">
          <mxGeometry x="30" y="648" width="100" height="60" as="geometry" />
        </mxCell>
        <mxCell id="VtodIQZo-vzemh34pdGO-24" style="edgeStyle=orthogonalEdgeStyle;rounded=0;orthogonalLoop=1;jettySize=auto;html=1;exitX=1;exitY=0.5;exitDx=0;exitDy=0;entryX=0;entryY=0.5;entryDx=0;entryDy=0;fontSize=12;" edge="1" parent="VtodIQZo-vzemh34pdGO-2" source="VtodIQZo-vzemh34pdGO-8" target="VtodIQZo-vzemh34pdGO-15">
          <mxGeometry relative="1" as="geometry" />
        </mxCell>
        <mxCell id="VtodIQZo-vzemh34pdGO-25" style="edgeStyle=orthogonalEdgeStyle;rounded=1;html=1;labelBackgroundColor=none;startArrow=none;startFill=0;startSize=5;endArrow=classicThin;endFill=1;endSize=5;jettySize=auto;orthogonalLoop=1;strokeWidth=1;fontFamily=Verdana;fontSize=8;exitX=0.5;exitY=1;exitDx=0;exitDy=0;entryX=0.5;entryY=0;entryDx=0;entryDy=0;" edge="1" parent="VtodIQZo-vzemh34pdGO-2" source="VtodIQZo-vzemh34pdGO-15" target="VtodIQZo-vzemh34pdGO-10">
          <mxGeometry relative="1" as="geometry">
            <mxPoint x="400.04761904761904" y="235" as="sourcePoint" />
          </mxGeometry>
        </mxCell>
        <mxCell id="VtodIQZo-vzemh34pdGO-26" style="edgeStyle=orthogonalEdgeStyle;rounded=1;html=1;labelBackgroundColor=none;startArrow=none;startFill=0;startSize=5;endArrow=classicThin;endFill=1;endSize=5;jettySize=auto;orthogonalLoop=1;strokeWidth=1;fontFamily=Verdana;fontSize=8;exitX=1;exitY=0.5;exitDx=0;exitDy=0;entryX=0;entryY=0.5;entryDx=0;entryDy=0;" edge="1" parent="VtodIQZo-vzemh34pdGO-2" source="VtodIQZo-vzemh34pdGO-10" target="VtodIQZo-vzemh34pdGO-16">
          <mxGeometry relative="1" as="geometry">
            <mxPoint x="410" y="128" as="sourcePoint" />
            <mxPoint x="450" y="350" as="targetPoint" />
          </mxGeometry>
        </mxCell>
        <mxCell id="VtodIQZo-vzemh34pdGO-32" value="ЭДО Обоз" style="swimlane;html=1;startSize=20;" vertex="1" parent="VtodIQZo-vzemh34pdGO-2">
          <mxGeometry x="800" y="20" width="160" height="730" as="geometry" />
        </mxCell>
        <mxCell id="VtodIQZo-vzemh34pdGO-35" value="&lt;span style=&quot;font-size: 12px;&quot;&gt;Отзыв заявки&lt;/span&gt;" style="rounded=1;whiteSpace=wrap;html=1;shadow=0;labelBackgroundColor=none;strokeWidth=1;fontFamily=Verdana;fontSize=8;align=center;" vertex="1" parent="VtodIQZo-vzemh34pdGO-32">
          <mxGeometry x="30" y="540" width="100" height="60" as="geometry" />
        </mxCell>
        <mxCell id="0KpeS65RAgGn8VgbB2aa-0" value="&lt;span style=&quot;font-size: 12px;&quot;&gt;Синхронизация&lt;br&gt;&lt;/span&gt;????????" style="rounded=1;whiteSpace=wrap;html=1;shadow=0;labelBackgroundColor=none;strokeWidth=1;fontFamily=Verdana;fontSize=8;align=center;" vertex="1" parent="VtodIQZo-vzemh34pdGO-32">
          <mxGeometry x="30" y="271" width="100" height="60" as="geometry" />
        </mxCell>
        <mxCell id="VtodIQZo-vzemh34pdGO-36" style="edgeStyle=orthogonalEdgeStyle;rounded=1;html=1;labelBackgroundColor=none;startArrow=none;startFill=0;startSize=5;endArrow=classicThin;endFill=1;endSize=5;jettySize=auto;orthogonalLoop=1;strokeWidth=1;fontFamily=Verdana;fontSize=8;exitX=0;exitY=0.5;exitDx=0;exitDy=0;entryX=0.5;entryY=0;entryDx=0;entryDy=0;" edge="1" parent="VtodIQZo-vzemh34pdGO-2" source="VtodIQZo-vzemh34pdGO-12" target="VtodIQZo-vzemh34pdGO-5">
          <mxGeometry relative="1" as="geometry">
            <mxPoint x="569.9999999999998" y="470" as="sourcePoint" />
            <mxPoint x="679.9999999999998" y="490" as="targetPoint" />
          </mxGeometry>
        </mxCell>
        <mxCell id="VtodIQZo-vzemh34pdGO-37" style="edgeStyle=orthogonalEdgeStyle;rounded=1;html=1;labelBackgroundColor=none;startArrow=none;startFill=0;startSize=5;endArrow=classicThin;endFill=1;endSize=5;jettySize=auto;orthogonalLoop=1;strokeWidth=1;fontFamily=Verdana;fontSize=8;exitX=1;exitY=0.5;exitDx=0;exitDy=0;entryX=0;entryY=0.5;entryDx=0;entryDy=0;" edge="1" parent="VtodIQZo-vzemh34pdGO-2" source="VtodIQZo-vzemh34pdGO-5" target="VtodIQZo-vzemh34pdGO-35">
          <mxGeometry relative="1" as="geometry">
            <mxPoint x="359.9999999999998" y="545" as="sourcePoint" />
            <mxPoint x="90" y="570" as="targetPoint" />
          </mxGeometry>
        </mxCell>
        <mxCell id="VtodIQZo-vzemh34pdGO-38" style="edgeStyle=orthogonalEdgeStyle;rounded=1;html=1;labelBackgroundColor=none;startArrow=none;startFill=0;startSize=5;endArrow=classicThin;endFill=1;endSize=5;jettySize=auto;orthogonalLoop=1;strokeWidth=1;fontFamily=Verdana;fontSize=8;exitX=0.5;exitY=1;exitDx=0;exitDy=0;entryX=0.5;entryY=0;entryDx=0;entryDy=0;" edge="1" parent="VtodIQZo-vzemh34pdGO-2" source="VtodIQZo-vzemh34pdGO-35" target="VtodIQZo-vzemh34pdGO-20">
          <mxGeometry relative="1" as="geometry">
            <mxPoint x="569.9999999999998" y="470" as="sourcePoint" />
            <mxPoint x="679.9999999999998" y="490" as="targetPoint" />
          </mxGeometry>
        </mxCell>
        <mxCell id="VtodIQZo-vzemh34pdGO-39" style="edgeStyle=orthogonalEdgeStyle;rounded=1;html=1;labelBackgroundColor=none;startArrow=none;startFill=0;startSize=5;endArrow=classicThin;endFill=1;endSize=5;jettySize=auto;orthogonalLoop=1;strokeWidth=1;fontFamily=Verdana;fontSize=8;exitX=1;exitY=0.5;exitDx=0;exitDy=0;entryX=0;entryY=0.5;entryDx=0;entryDy=0;" edge="1" parent="VtodIQZo-vzemh34pdGO-2" source="VtodIQZo-vzemh34pdGO-20" target="VtodIQZo-vzemh34pdGO-23">
          <mxGeometry relative="1" as="geometry">
            <mxPoint x="890" y="630" as="sourcePoint" />
            <mxPoint x="569.9999999999998" y="678" as="targetPoint" />
          </mxGeometry>
        </mxCell>
        <mxCell id="VtodIQZo-vzemh34pdGO-18" style="edgeStyle=orthogonalEdgeStyle;rounded=1;html=1;labelBackgroundColor=none;startArrow=none;startFill=0;startSize=5;endArrow=classicThin;endFill=1;endSize=5;jettySize=auto;orthogonalLoop=1;strokeWidth=1;fontFamily=Verdana;fontSize=8;entryX=1;entryY=0.5;entryDx=0;entryDy=0;exitX=0.5;exitY=1;exitDx=0;exitDy=0;" edge="1" parent="VtodIQZo-vzemh34pdGO-2" source="VtodIQZo-vzemh34pdGO-16" target="VtodIQZo-vzemh34pdGO-33">
          <mxGeometry relative="1" as="geometry">
            <mxPoint x="560" y="230" as="sourcePoint" />
            <mxPoint x="560" y="241" as="targetPoint" />
          </mxGeometry>
        </mxCell>
        <mxCell id="VtodIQZo-vzemh34pdGO-28" style="edgeStyle=orthogonalEdgeStyle;rounded=1;html=1;labelBackgroundColor=none;startArrow=none;startFill=0;startSize=5;endArrow=classicThin;endFill=1;endSize=5;jettySize=auto;orthogonalLoop=1;strokeWidth=1;fontFamily=Verdana;fontSize=8;exitX=0.75;exitY=1;exitDx=0;exitDy=0;entryX=0;entryY=0.5;entryDx=0;entryDy=0;" edge="1" parent="VtodIQZo-vzemh34pdGO-2" source="VtodIQZo-vzemh34pdGO-33" target="VtodIQZo-vzemh34pdGO-4">
          <mxGeometry relative="1" as="geometry" />
        </mxCell>
        <mxCell id="0KpeS65RAgGn8VgbB2aa-1" style="edgeStyle=orthogonalEdgeStyle;rounded=1;html=1;labelBackgroundColor=none;startArrow=none;startFill=0;startSize=5;endArrow=classicThin;endFill=1;endSize=5;jettySize=auto;orthogonalLoop=1;strokeWidth=1;fontFamily=Verdana;fontSize=8;exitX=1;exitY=0.5;exitDx=0;exitDy=0;entryX=0;entryY=0.5;entryDx=0;entryDy=0;" edge="1" parent="VtodIQZo-vzemh34pdGO-2" source="VtodIQZo-vzemh34pdGO-4" target="0KpeS65RAgGn8VgbB2aa-0">
          <mxGeometry relative="1" as="geometry">
            <mxPoint x="250" y="311" as="sourcePoint" />
            <mxPoint x="520" y="331" as="targetPoint" />
          </mxGeometry>
        </mxCell>
        <mxCell id="0KpeS65RAgGn8VgbB2aa-2" style="edgeStyle=orthogonalEdgeStyle;rounded=1;html=1;labelBackgroundColor=none;startArrow=none;startFill=0;startSize=5;endArrow=classicThin;endFill=1;endSize=5;jettySize=auto;orthogonalLoop=1;strokeWidth=1;fontFamily=Verdana;fontSize=8;exitX=0.5;exitY=1;exitDx=0;exitDy=0;entryX=0.5;entryY=0;entryDx=0;entryDy=0;" edge="1" parent="VtodIQZo-vzemh34pdGO-2" source="VtodIQZo-vzemh34pdGO-4" target="VtodIQZo-vzemh34pdGO-22">
          <mxGeometry relative="1" as="geometry">
            <mxPoint x="275" y="311" as="sourcePoint" />
            <mxPoint x="710" y="410" as="targetPoint" />
          </mxGeometry>
        </mxCell>
        <mxCell id="0KpeS65RAgGn8VgbB2aa-4" style="edgeStyle=orthogonalEdgeStyle;rounded=1;html=1;labelBackgroundColor=none;startArrow=none;startFill=0;startSize=5;endArrow=classicThin;endFill=1;endSize=5;jettySize=auto;orthogonalLoop=1;strokeWidth=1;fontFamily=Verdana;fontSize=8;exitX=0.5;exitY=1;exitDx=0;exitDy=0;entryX=0.5;entryY=0;entryDx=0;entryDy=0;" edge="1" parent="VtodIQZo-vzemh34pdGO-2" source="VtodIQZo-vzemh34pdGO-4" target="VtodIQZo-vzemh34pdGO-11">
          <mxGeometry relative="1" as="geometry">
            <mxPoint x="570" y="361" as="sourcePoint" />
            <mxPoint x="730" y="400" as="targetPoint" />
          </mxGeometry>
        </mxCell>
      </root>
    </mxGraphModel>
  </diagram>
</mxfile>
